{"title":"A.Few.Good.Men.1992.1080p.BlurayMUX.MPEG2.DD5.1.LPCM5.1","uid":11939104,"size":28648084957,"categoryP":"video","categoryS":"hd___movies","magnet":"?xt=urn:btih:a221cd17a7640e698df4f98b12782f5b37325078&amp;dn=A.Few.Good.Men.1992.1080p.BlurayMUX.MPEG2.DD5.1.LPCM5.1&amp;tr=udp%3A%2F%2Ftracker.openbittorrent.com%3A80&amp;tr=udp%3A%2F%2Fopen.demonii.com%3A1337&amp;tr=udp%3A%2F%2Ftracker.coppersurfer.tk%3A6969&amp;tr=udp%3A%2F%2Fexodus.desync.com%3A6969","seeders":1,"leechers":0,"uploader":"cfiggis","files":1,"time":1431933924,"description":"This is a BlurayMUX of the following Bluray disk: A Few Good Men (1992)\n\n\nIMDB: http://www.imdb.com/title/tt0104257/\n\n\nThe content is a MUX, which means the audio.video streams are untouched, thus preserving the full, original quality of the content.\n\nBelow is a sample of the MediaInfo for the movie:\n\nGeneral\nFormat : Matroska\nFormat version : Version 2\nFile size : 26.7 GiB\nDuration : 2h 18mn\nOverall bit rate mode : Variable\nOverall bit rate : 27.7 Mbps\nEncoded date : UTC 2015-05-18 04:10:23\nWriting application : MakeMKV v1.9.2 darwin(x86-release)\nWriting library : libmakemkv v1.9.2 (1.3.0/1.4.1) darwin(x86-release)\n\nVideo\nID : 1\nFormat : MPEG Video\nFormat version : Version 2\nFormat profile : Main@High\nFormat settings, BVOP : Yes\nFormat settings, Matrix : Custom\nFormat settings, GOP : M=3, N=12\nCodec ID : V_MPEG2\nCodec ID/Info : MPEG 1 or 2 Video\nDuration : 2h 18mn\nBit rate mode : Variable\nBit rate : 21.9 Mbps\nMaximum bit rate : 32.0 Mbps\nWidth : 1 920 pixels\nHeight : 1 080 pixels\nDisplay aspect ratio : 16:9\nFrame rate mode : Constant\nFrame rate : 23.976 fps\nColor space : YUV\nChroma subsampling : 4:2:0\nBit depth : 8 bits\nScan type : Progressive\nCompression mode : Lossy\nBits/(Pixel*Frame) : 0.440\nTime code of first frame : 00:00:00:00\nTime code source : Group of pictures header\nGOP, Open/Closed : Open\nGOP, Open/Closed of first frame : Closed\nStream size : 21.1 GiB (79%)\nLanguage : English\nDefault : No\nForced : No\n\nAudio #1\nID : 2\nFormat : AC-3\nFormat/Info : Audio Coding 3\nMode extension : CM (complete main)\nFormat settings, Endianness : Big\nCodec ID : A_AC3\nDuration : 2h 18mn\nBit rate mode : Constant\nBit rate : 640 Kbps\nChannel(s) : 6 channels\nChannel positions : Front: L C R, Side: L R, LFE\nSampling rate : 48.0 KHz\nBit depth : 16 bits\nCompression mode : Lossy\nStream size : 632 MiB (2%)\nTitle : Surround 5.1\nLanguage : English\nDefault : Yes\nForced : No\n\nAudio #2\nID : 3\nFormat : PCM\nCodec ID : 00001000-0000-0100-8000-00AA00389B71\nDuration : 2h 18mn\nBit rate mode : Constant\nBit rate : 4 608 Kbps\nChannel(s) : 6 channels\nChannel positions : Front: L C R, Side: L R, LFE\nSampling rate : 48.0 KHz\nBit depth : 16 bits\nStream size : 4.44 GiB (17%)\nTitle : Surround 5.1\nLanguage : English\nDefault : No\nForced : No\n\nText #1\nID : 4\nFormat : PGS\nCodec ID : S_HDMV/PGS\nCodec ID/Info : Picture based subtitle format used on BDs/HD-DVDs\nLanguage : English\nDefault : No\nForced : No","torrent":{"xt":"urn:btih:a221cd17a7640e698df4f98b12782f5b37325078","amp;dn":"A.Few.Good.Men.1992.1080p.BlurayMUX.MPEG2.DD5.1.LPCM5.1","amp;tr":["udp%3A%2F%2Ftracker.openbittorrent.com%3A80","udp%3A%2F%2Fopen.demonii.com%3A1337","udp%3A%2F%2Ftracker.coppersurfer.tk%3A6969","udp%3A%2F%2Fexodus.desync.com%3A6969"],"infoHash":"a221cd17a7640e698df4f98b12782f5b37325078","infoHashBuffer":{"type":"Buffer","data":[162,33,205,23,167,100,14,105,141,244,249,139,18,120,47,91,55,50,80,120]},"announce":[],"urlList":[]}}